<svg width="64" height="53" viewBox="0 0 64 53" fill="none" xmlns="http://www.w3.org/2000/svg">
    <path d="M2 49.5C1.17157 49.5 0.5 50.1716 0.5 51C0.5 51.8284 1.17157 52.5 2 52.5V49.5ZM51.8973 0.797971C51.2334 0.302413 50.2935 0.438849 49.798 1.10271L41.7224 11.921C41.2268 12.5848 41.3633 13.5247 42.0271 14.0203C42.691 14.5158 43.6309 14.3794 44.1264 13.7155L51.3047 4.09932L60.921 11.2776C61.5848 11.7732 62.5247 11.6368 63.0203 10.9729C63.5158 10.309 63.3794 9.36913 62.7155 8.87357L51.8973 0.797971ZM2 52.5C13.845 52.5 27.5645 47.8805 37.7791 39.272C48.0389 30.6254 54.8219 17.8869 52.4844 1.78452L49.5156 2.21548C51.6781 17.1131 45.4611 28.8746 35.8459 36.978C26.1855 45.1195 13.155 49.5 2 49.5V52.5Z" fill="#13AA52"/>
</svg>
