<svg width="28" height="30" viewBox="0 0 28 30" fill="none" xmlns="http://www.w3.org/2000/svg">
    <path d="M7 12.246C7 12.6569 7.15804 13.0509 7.43934 13.3415C7.72064 13.632 8.10218 13.7953 8.5 13.7953C8.89782 13.7953 9.27936 13.632 9.56066 13.3415C9.84196 13.0509 10 12.6569 10 12.246C10 11.8351 9.84196 11.441 9.56066 11.1504C9.27936 10.8599 8.89782 10.6967 8.5 10.6967C8.10218 10.6967 7.72064 10.8599 7.43934 11.1504C7.15804 11.441 7 11.8351 7 12.246ZM18 12.246C18 12.6569 18.158 13.0509 18.4393 13.3415C18.7206 13.632 19.1022 13.7953 19.5 13.7953C19.8978 13.7953 20.2794 13.632 20.5607 13.3415C20.842 13.0509 21 12.6569 21 12.246C21 11.8351 20.842 11.441 20.5607 11.1504C20.2794 10.8599 19.8978 10.6967 19.5 10.6967C19.1022 10.6967 18.7206 10.8599 18.4393 11.1504C18.158 11.441 18 11.8351 18 12.246ZM14 0.723053C6.26875 0.723053 0 7.19783 0 15.1832C0 23.1685 6.26875 29.6433 14 29.6433C21.7313 29.6433 28 23.1685 28 15.1832C28 7.19783 21.7313 0.723053 14 0.723053ZM22.2188 23.672C21.15 24.7759 19.9062 25.6409 18.5219 26.2477C17.0938 26.8739 15.5719 27.1902 14 27.1902C12.4281 27.1902 10.9062 26.8739 9.475 26.2477C8.09272 25.6448 6.83713 24.77 5.77812 23.672C4.70937 22.5682 3.87188 21.2835 3.28438 19.8537C2.68125 18.3786 2.375 16.8067 2.375 15.1832C2.375 13.5596 2.68125 11.9877 3.2875 10.5095C3.87127 9.08175 4.71824 7.78489 5.78125 6.69108C6.85 5.5872 8.09375 4.72218 9.47812 4.11537C10.9062 3.49242 12.4281 3.17611 14 3.17611C15.5719 3.17611 17.0938 3.49242 18.525 4.1186C19.9073 4.72156 21.1629 5.59636 22.2219 6.69431C23.2906 7.79818 24.1281 9.08281 24.7156 10.5127C25.3188 11.9877 25.625 13.5596 25.625 15.1832C25.625 16.8067 25.3188 18.3786 24.7125 19.8569C24.1294 21.284 23.2824 22.58 22.2188 23.672ZM18.75 15.861H17.2469C17.1156 15.861 17.0031 15.9643 16.9937 16.0998C16.875 17.6976 15.5781 18.9596 14 18.9596C12.4219 18.9596 11.1219 17.6976 11.0063 16.0998C10.9969 15.9643 10.8844 15.861 10.7531 15.861H9.25C9.21609 15.8609 9.18253 15.868 9.15135 15.8818C9.12018 15.8956 9.09204 15.9158 9.06865 15.9411C9.04527 15.9665 9.02712 15.9965 9.01532 16.0293C9.00352 16.0622 8.9983 16.0971 9 16.1321C9.1375 18.8531 11.3281 21.0253 14 21.0253C16.6719 21.0253 18.8625 18.8531 19 16.1321C19.0017 16.0971 18.9965 16.0622 18.9847 16.0293C18.9729 15.9965 18.9547 15.9665 18.9313 15.9411C18.908 15.9158 18.8798 15.8956 18.8486 15.8818C18.8175 15.868 18.7839 15.8609 18.75 15.861Z" fill="#13AA52"/>
</svg>
