

<svg width="41" height="41" viewBox="0 0 41 41" fill="none" xmlns="http://www.w3.org/2000/svg">
    <path d="M10.9087 17.9619C10.9799 18.4684 11.2493 18.9259 11.6578 19.2337C12.0663 19.5415 12.5804 19.6744 13.0869 19.6033C13.5934 19.5321 14.0509 19.2626 14.3587 18.8541C14.6665 18.4456 14.7995 17.9316 14.7283 17.425C14.6571 16.9185 14.3876 16.461 13.9791 16.1532C13.5706 15.8454 13.0566 15.7125 12.5501 15.7836C12.0436 15.8548 11.5861 16.1243 11.2783 16.5328C10.9704 16.9413 10.8375 17.4553 10.9087 17.9619ZM24.9139 15.9935C24.9851 16.5001 25.2546 16.9575 25.6631 17.2654C26.0715 17.5732 26.5856 17.7061 27.0921 17.6349C27.5986 17.5638 28.0561 17.2943 28.3639 16.8858C28.6717 16.4773 28.8047 15.9632 28.7335 15.4567C28.6623 14.9502 28.3928 14.4927 27.9843 14.1849C27.5758 13.8771 27.0618 13.7442 26.5553 13.8153C26.0488 13.8865 25.5913 14.156 25.2835 14.5645C24.9757 14.973 24.8427 15.487 24.9139 15.9935ZM17.8248 2.50514C7.98138 3.88854 1.12171 12.9916 2.50512 22.8351C3.88852 32.6785 12.9916 39.5382 22.8351 38.1548C32.6785 36.7714 39.5382 27.6683 38.1548 17.8248C36.7714 7.98141 27.6683 1.12173 17.8248 2.50514ZM32.2647 29.3235C31.0952 30.8754 29.6615 32.1643 28.0041 33.16C26.2942 34.1874 24.4114 34.8497 22.4101 35.1309C20.4088 35.4122 18.4163 35.2946 16.4856 34.7788C14.6212 34.2829 12.871 33.4292 11.3325 32.2653C9.7805 31.0958 8.49164 29.6621 7.49592 28.0046C6.47247 26.2943 5.81024 24.4114 5.52897 22.4101C5.2477 20.4088 5.3653 18.4163 5.88108 16.4856C6.377 14.6212 7.23069 12.871 8.39462 11.3325C9.56411 9.78052 10.9978 8.49166 12.6553 7.49594C14.3656 6.4725 16.2485 5.81026 18.2498 5.52899C20.2511 5.24773 22.2436 5.36532 24.1743 5.8811C26.0387 6.37702 27.7889 7.23071 29.3274 8.39464C30.8794 9.56414 32.1682 10.9978 33.164 12.6553C34.1874 14.3657 34.8496 16.2485 35.1309 18.2498C35.4122 20.2511 35.2946 22.2436 34.7788 24.1743C34.2837 26.0379 33.4297 27.787 32.2647 29.3235ZM26.4951 20.3156L24.5813 20.5845C24.4142 20.608 24.2888 20.7555 24.3004 20.9242C24.426 22.915 22.9935 24.7027 20.9842 24.9851C18.9749 25.2675 17.1011 23.9444 16.6771 21.9956C16.6417 21.8302 16.4805 21.723 16.3134 21.7465L14.3997 22.0155C14.3565 22.0215 14.315 22.0362 14.2777 22.0588C14.2404 22.0813 14.208 22.1112 14.1827 22.1467C14.1573 22.1821 14.1394 22.2224 14.13 22.265C14.1207 22.3075 14.1201 22.3516 14.1283 22.3944C14.7748 25.7239 17.9402 28.0096 21.3421 27.5315C24.7439 27.0534 27.1567 23.9837 26.8603 20.605C26.8564 20.5616 26.8438 20.5194 26.823 20.4811C26.8023 20.4427 26.774 20.409 26.7399 20.3819C26.7057 20.3548 26.6664 20.335 26.6243 20.3236C26.5822 20.3122 26.5382 20.3094 26.4951 20.3156Z" fill="white"/>
</svg>
